<svg xmlns="http://www.w3.org/2000/svg" viewBox="0 0 47.03 53.1"><title>i_info_grey</title><polygon points="26.21 22.17 26.21 19.54 19.2 19.54 19.2 22.24 20.82 22.24 20.82 31.94 19.2 31.94 19.2 34.64 27.83 34.64 27.83 31.94 26.21 31.94 26.21 22.17" style="fill:#58595b"/><circle cx="23.52" cy="15.16" r="2.7" style="fill:#58595b"/><path d="M47,23.52A23.52,23.52,0,1,0,16.32,45.9l7.2,7.2,7.2-7.2A23.56,23.56,0,0,0,47,23.52ZM23.52,41A17.45,17.45,0,1,1,41,23.52,17.47,17.47,0,0,1,23.52,41Z" style="fill:#58595b"/></svg>