<svg xmlns="http://www.w3.org/2000/svg" viewBox="0 0 40.27 44.36"><title>i_layers</title><path d="M40.27,12.51a3.26,3.26,0,0,0-1.65-2.84L23.06.78a5.87,5.87,0,0,0-5.85,0L1.65,9.67A3.27,3.27,0,0,0,.43,14.14a3.4,3.4,0,0,0,1.22,1.22l3.48,2-3.48,2a3.28,3.28,0,0,0,0,5.69l3.48,2-3.48,2a3.28,3.28,0,0,0,0,5.69l15.56,9a5.87,5.87,0,0,0,5.85,0l15.56-8.89a3.28,3.28,0,0,0,0-5.69l-3.48-2,3.48-2a3.28,3.28,0,0,0,0-5.69l-3.48-2,3.48-2A3.29,3.29,0,0,0,40.27,12.51ZM35.68,31.85,21.11,40.16a1.91,1.91,0,0,1-2,0L4.6,31.85l4.32-2.46c.05,0,.1-.07.15-.11l8.14,4.63a5.87,5.87,0,0,0,5.85,0l8.14-4.65.15.12Zm-14.57-11a2,2,0,0,1-2,0L4.6,12.51,19.16,4.19a1.93,1.93,0,0,1,2,0l14.54,8.32Z" style="fill:#fff"/></svg>